<svg width="24" height="24" viewBox="0 0 24 24" fill="none" xmlns="http://www.w3.org/2000/svg">
  <path d="M11.9018 4.75019C6.24654 4.71718 3.12244 8.90416 2.25328 10.2718C2.10548 10.5044 2.19708 10.8023 2.44068 10.9311L7.8777 13.8065C8.15262 13.9519 8.50214 13.8164 8.65728 13.5468C9.0684 12.8326 10.0394 11.667 11.9805 11.7217C12.177 11.727 12.373 11.7445 12.5674 11.7739L14.6883 5.12834C13.7798 4.88142 12.8431 4.7543 11.9018 4.75019Z" stroke="#7026B9" stroke-width="1.5"/>
  <path d="M14.6881 5.12842L12.5673 11.7746C14.8817 12.1271 15.5559 14.0853 15.5559 14.0853L21.5353 11.0887C21.789 10.9615 21.8836 10.6522 21.7273 10.4154C20.9696 9.26814 18.6316 6.20205 14.6881 5.12842Z" fill="#7026B9" stroke="#7026B9" stroke-width="1.5"/>
  <path fill-rule="evenodd" clip-rule="evenodd" d="M12.4951 16.3487L16.9917 13.3749L11.9042 15.1491L11.9037 15.1482C11.5727 15.3122 11.4367 15.714 11.6 16.0455C11.7633 16.377 12.164 16.5128 12.4951 16.3488L12.4951 16.3487Z" fill="url(#paint0_linear_4863_3646)"/>
  <mask id="path-4-outside-1_4863_3646" maskUnits="userSpaceOnUse" x="7.32883" y="8.18494" width="15.6244" height="13.0622" fill="black">
    <rect fill="white" x="7.32883" y="8.18494" width="15.6244" height="13.0622"/>
    <path fill-rule="evenodd" clip-rule="evenodd" d="M19.4595 12.196C19.3874 12.071 19.2349 12.0173 19.1004 12.0696L11.8425 14.8884L11.8528 14.9063C11.7757 14.9351 11.7 14.9707 11.6263 15.0132C10.9089 15.4275 10.663 16.3448 11.0772 17.0621C11.4913 17.7794 12.4087 18.0252 13.1261 17.6109C13.1998 17.5684 13.2684 17.5206 13.332 17.4682L13.3425 17.4865L19.3908 12.5691C19.5022 12.4785 19.5314 12.3203 19.4595 12.196Z"/>
  </mask>
  <path fill-rule="evenodd" clip-rule="evenodd" d="M19.4595 12.196C19.3874 12.071 19.2349 12.0173 19.1004 12.0696L11.8425 14.8884L11.8528 14.9063C11.7757 14.9351 11.7 14.9707 11.6263 15.0132C10.9089 15.4275 10.663 16.3448 11.0772 17.0621C11.4913 17.7794 12.4087 18.0252 13.1261 17.6109C13.1998 17.5684 13.2684 17.5206 13.332 17.4682L13.3425 17.4865L19.3908 12.5691C19.5022 12.4785 19.5314 12.3203 19.4595 12.196Z" fill="#7026B9"/>
  <path d="M19.1004 12.0696L19.6435 13.4678L19.6435 13.4678L19.1004 12.0696ZM11.8425 14.8884L11.2994 13.4901C10.8913 13.6486 10.5729 13.9775 10.4275 14.3904C10.2822 14.8034 10.3246 15.2592 10.5434 15.6384L11.8425 14.8884ZM11.8528 14.9063L12.378 16.3114C12.7912 16.157 13.1155 15.8285 13.2646 15.4133C13.4137 14.9981 13.3725 14.5384 13.1519 14.1563L11.8528 14.9063ZM13.332 17.4682L14.631 16.7182C14.4104 16.3362 14.0329 16.0706 13.5988 15.9921C13.1647 15.9137 12.718 16.0303 12.3777 16.3109L13.332 17.4682ZM13.3425 17.4865L12.0434 18.2365C12.2631 18.6169 12.6385 18.882 13.0706 18.9616C13.5026 19.0412 13.9479 18.9275 14.2887 18.6503L13.3425 17.4865ZM19.3908 12.5691L20.337 13.7329L20.337 13.7329L19.3908 12.5691ZM19.6435 13.4678C19.0881 13.6835 18.4584 13.4619 18.1605 12.946L20.7586 11.446C20.3164 10.6801 19.3817 10.3512 18.5574 10.6713L19.6435 13.4678ZM12.3855 16.2866L19.6435 13.4678L18.5574 10.6713L11.2994 13.4901L12.3855 16.2866ZM13.1519 14.1563L13.1415 14.1384L10.5434 15.6384L10.5538 15.6563L13.1519 14.1563ZM11.3277 13.5012C11.1732 13.559 11.0222 13.63 10.8763 13.7142L12.3763 16.3123C12.3778 16.3114 12.3783 16.3113 12.378 16.3114L11.3277 13.5012ZM10.8763 13.7142C9.44162 14.5425 8.94966 16.3771 9.77813 17.8121L12.3762 16.3121L12.3763 16.3123L10.8763 13.7142ZM9.77813 17.8121C10.6066 19.247 12.4414 19.7383 13.8761 18.91L12.3761 16.3119L12.3762 16.3121L9.77813 17.8121ZM13.8761 18.91C14.0219 18.8258 14.1589 18.7305 14.2862 18.6255L12.3777 16.3109C12.378 16.3107 12.3776 16.3111 12.3761 16.3119L13.8761 18.91ZM14.6415 16.7365L14.631 16.7182L12.0329 18.2182L12.0434 18.2365L14.6415 16.7365ZM18.4445 11.4052L12.3962 16.3226L14.2887 18.6503L20.337 13.7329L18.4445 11.4052ZM18.1605 12.946C17.8639 12.4323 17.9843 11.7793 18.4445 11.4052L20.337 13.7329C21.0201 13.1776 21.1988 12.2084 20.7586 11.446L18.1605 12.946Z" fill="white" mask="url(#path-4-outside-1_4863_3646)"/>
  <defs>
    <linearGradient id="paint0_linear_4863_3646" x1="14.014" y1="14.0979" x2="14.6118" y2="15.305" gradientUnits="userSpaceOnUse">
    <stop stop-color="#FED038"/>
    <stop offset="0.203125" stop-color="#FB8400"/>
    <stop offset="0.416667" stop-color="#EC1818"/>
    <stop offset="0.65625" stop-color="#BC027F"/>
    <stop offset="0.890625" stop-color="#542C85"/>
  </linearGradient>
  </defs>
</svg>
