<svg width="24" height="24" viewBox="0 0 24 24" fill="none" xmlns="http://www.w3.org/2000/svg">
  <g clip-path="url(#clip0_4863_3666)">
    <path d="M11.9999 5.3335C7.5555 5.3335 3.75995 8.09794 2.22217 12.0002C3.75995 15.9024 7.5555 18.6668 11.9999 18.6668C16.4444 18.6668 20.2399 15.9024 21.7777 12.0002C20.2399 8.09794 16.4444 5.3335 11.9999 5.3335ZM11.9999 16.4446C9.54661 16.4446 7.5555 14.4535 7.5555 12.0002C7.5555 9.54683 9.54661 7.55572 11.9999 7.55572C14.4533 7.55572 16.4444 9.54683 16.4444 12.0002C16.4444 14.4535 14.4533 16.4446 11.9999 16.4446ZM11.9999 9.3335C10.5244 9.3335 9.33328 10.5246 9.33328 12.0002C9.33328 13.4757 10.5244 14.6668 11.9999 14.6668C13.4755 14.6668 14.6666 13.4757 14.6666 12.0002C14.6666 10.5246 13.4755 9.3335 11.9999 9.3335Z" fill="#7026B9"/>
  </g>
  <line x1="8.80334" y1="11.6665" x2="8.80334" y2="18.6665" stroke="white" stroke-width="2.5"/>
  <circle cx="12" cy="12.0002" r="2.8125" stroke="white" stroke-width="1.70833"/>
  <circle cx="12" cy="12" r="2" fill="#7026B9"/>
  <defs>
    <clipPath id="clip0_4863_3666">
      <rect width="21.3333" height="21.3333" fill="white" transform="translate(1.33331 1.3335)"/>
    </clipPath>
  </defs>
</svg>
